<svg id="ehxB3H768uv1" xmlns="http://www.w3.org/2000/svg" xmlns:xlink="http://www.w3.org/1999/xlink" viewBox="0 0 700 400" shape-rendering="geometricPrecision" text-rendering="geometricPrecision"><defs><radialGradient id="ehxB3H768uv19-fill" cx="0" cy="0" r="40.768204" spreadMethod="pad" gradientUnits="userSpaceOnUse" gradientTransform="matrix(-0.997213 0.0081 -0.000406 -0.7836 15.971186 0.428586)"><stop id="ehxB3H768uv19-fill-0" offset="0%" stop-color="rgba(245,89,95,0)"/><stop id="ehxB3H768uv19-fill-1" offset="17%" stop-color="rgba(245,89,95,0.33)"/><stop id="ehxB3H768uv19-fill-2" offset="72.7855%" stop-color="rgba(108,23,58,0.8474574341733292)"/><stop id="ehxB3H768uv19-fill-3" offset="96%" stop-color="#43032f"/></radialGradient><radialGradient id="ehxB3H768uv25-fill" cx="0" cy="0" r="1.071448" spreadMethod="pad" gradientUnits="objectBoundingBox" gradientTransform="matrix(0.343994 0.938972 -0.63824 0.233821 0.30767 0.009446)"><stop id="ehxB3H768uv25-fill-0" offset="39%" stop-color="#a3bbff"/><stop id="ehxB3H768uv25-fill-1" offset="64%" stop-color="#8391d8"/><stop id="ehxB3H768uv25-fill-2" offset="81%" stop-color="#514da5"/><stop id="ehxB3H768uv25-fill-3" offset="100%" stop-color="#2c0765"/></radialGradient><linearGradient id="ehxB3H768uv35-fill" x1="244.899928" y1="210.312602" x2="285.02" y2="245.27" spreadMethod="pad" gradientUnits="userSpaceOnUse" gradientTransform="translate(0 0)"><stop id="ehxB3H768uv35-fill-0" offset="3%" stop-color="#32294e"/><stop id="ehxB3H768uv35-fill-1" offset="11%" stop-color="rgba(44,46,73,0.8)"/><stop id="ehxB3H768uv35-fill-2" offset="28%" stop-color="rgba(126,124,158,0.6)"/><stop id="ehxB3H768uv35-fill-3" offset="47%" stop-color="rgba(210,200,211,0.27)"/><stop id="ehxB3H768uv35-fill-4" offset="52%" stop-color="rgba(253,255,255,0)"/></linearGradient><radialGradient id="ehxB3H768uv51-fill" cx="0" cy="0" r="57.859495" spreadMethod="pad" gradientUnits="userSpaceOnUse" gradientTransform="matrix(0.306301 0.951935 -0.774234 0.249123 -7.445059 -24.948626)"><stop id="ehxB3H768uv51-fill-0" offset="0%" stop-color="rgba(100,204,129,0)"/><stop id="ehxB3H768uv51-fill-1" offset="72%" stop-color="rgba(13,97,119,0.73)"/><stop id="ehxB3H768uv51-fill-2" offset="100%" stop-color="#14275e"/></radialGradient><radialGradient id="ehxB3H768uv64-fill" cx="0" cy="0" r="34.372684" spreadMethod="pad" gradientUnits="userSpaceOnUse" gradientTransform="matrix(0.270013 0.962857 -0.819256 0.229743 -2.370649 -9.432073)"><stop id="ehxB3H768uv64-fill-0" offset="0%" stop-color="rgba(249,202,75,0)"/><stop id="ehxB3H768uv64-fill-1" offset="23%" stop-color="rgba(246,197,74,0)"/><stop id="ehxB3H768uv64-fill-2" offset="35.0905%" stop-color="rgba(220,159,64,0.11)"/><stop id="ehxB3H768uv64-fill-3" offset="68.6984%" stop-color="rgba(179,86,23,0.7)"/><stop id="ehxB3H768uv64-fill-4" offset="100%" stop-color="#881f0e"/></radialGradient><radialGradient id="ehxB3H768uv85-fill" cx="0" cy="0" r="41.613654" spreadMethod="pad" gradientUnits="userSpaceOnUse" gradientTransform="matrix(-0.259452 -0.965756 0.773873 -0.207902 -5.058538 -15.271593)"><stop id="ehxB3H768uv85-fill-0" offset="0%" stop-color="rgba(130,207,255,0)"/><stop id="ehxB3H768uv85-fill-1" offset="16%" stop-color="rgba(121,195,244,0.07)"/><stop id="ehxB3H768uv85-fill-2" offset="40%" stop-color="rgba(97,163,213,0.27)"/><stop id="ehxB3H768uv85-fill-3" offset="63.1243%" stop-color="rgba(0,13,74,0.27)"/><stop id="ehxB3H768uv85-fill-4" offset="100%" stop-color="#041253"/></radialGradient></defs><rect width="700" height="400" rx="0" ry="0" fill="#062236" stroke-width="0"/><g transform="matrix(1.263842 0 0 1.263842 9.662397-120.884698)"><g transform="matrix(1.131757 0 0 1.131757 47.296095 33.163776)"><g id="ehxB3H768uv6" transform="translate(-3 0)"><path d="M317.5,196.49v-268.730202" fill="none" stroke="#3b4f66" stroke-width="2" stroke-miterlimit="10"/><g mask="url(#ehxB3H768uv20)"><g><circle r="24.07" transform="translate(317.5 220.57)" fill="#f5595f"/><path d="M345.46,211.24c0,2.28-7.91,3-16.11,3s-14.85-.57-14.85-3s6.65-3,14.85-3s16.11.61,16.11,3Z" fill="#b83041"/><path d="M335.72,227.52c0,3-3.41,3-7.62,3s-9.27,0-9.27-3s5.06-3,9.27-3s7.62.61,7.62,3Z" fill="#b83041"/><ellipse rx="9.9" ry="3.84" transform="translate(308.46 239.81)" fill="#b83041"/><path d="M296.74,206.21c0-1.06,2.22-1.92,5-1.92c3.35,0,5.63.86,5.63,1.92c0,1.46-2.28,1.92-5.63,1.92-2.74,0-5-.86-5-1.92Z" fill="#b83041"/><path d="M299.64,230.29c0-1.37,2.17-2.49,4.19-2.49s4.52,1,4.52,2.49c0,1.84-2.49,2.49-4.52,2.49s-4.19-1.11-4.19-2.49Z" fill="#b83041"/><circle r="2.49" transform="translate(328.06 237.79)" fill="#b83041"/><ellipse rx="3.98" ry="0.97" transform="translate(312.28 222.86)" fill="#b83041"/><path d="M322.33,200.14c0,1-2.65,1-4.95,1s-4.72,0-4.72-1c0-.74,2.43-1,4.72-1s4.95.43,4.95,1Z" fill="#b83041"/><circle r="24.16" transform="matrix(-.181861-1.026064 1.026064-.181861 317.236658 220.630261)" fill="url(#ehxB3H768uv19-fill)"/></g><mask id="ehxB3H768uv20" mask-type="luminance" x="-150%" y="-150%" height="400%" width="400%"><circle r="24.07" transform="translate(317.5 220.57)" fill="#fff"/></mask></g></g><g id="ehxB3H768uv22" transform="translate(-3 0)"><path d="M256.54,196.49v-269.284979" fill="none" stroke="#3b4f66" stroke-width="2" stroke-miterlimit="10"/><g><circle r="36.88" transform="translate(256.54 220.57)" fill="url(#ehxB3H768uv25-fill)"/><ellipse rx="9.03" ry="11.38" transform="matrix(.983791-.179317 0.179317 0.983791 235.162204 218.04897)" fill="#5e67b8"/><ellipse rx="7.18" ry="8.15" transform="matrix(.754481-.656322 0.656322 0.754481 251.932123 231.748856)" fill="#5e67b8"/><ellipse rx="4.01" ry="5.13" transform="matrix(.754481-.656322 0.656322 0.754481 253.808017 213.95521)" fill="#5e67b8"/></g><g id="ehxB3H768uv30" transform="matrix(.996195-.087156 0.087156 0.996195-18.252121 23.155495)" mask="url(#ehxB3H768uv36)"><g><path d="M298,175.41c-3.72-3.52-15.66,3.68-26.88,11.21c1.434321.620439,2.824268,1.338801,4.16,2.15c4.15-1.65,7.37-1.82,9.09-.18s1.71,4.53.48,8.43c-2.44,7.82-10.08,19.36-20.84,30.66s-22,19.51-29.67,22.33c-3.83,1.4-6.81,1.47-8.43-.08s-1.71-4.85-.27-9.07c-.8722-1.303377-1.657247-2.663011-2.35-4.07-7,11.58-13,25.45-9.27,29s16.31-4,27.53-11.57c9.601629-6.638747,18.46837-14.281912,26.45-22.8c8.086365-8.351979,15.257076-17.544166,21.39-27.42c6.99-11.56,12.33-25.06,8.61-28.59Z" fill="#fde7ff"/><path d="M298,175.41c0,0,3.71,3.53-6.87,22.55-6.811093,11.640669-14.904906,22.481616-24.13,32.32-10.78,11.32-19.64,17.47-29.18,24.11C217.5,268.53,214,265.77,214,265.77c3.62,3.62,16.422257-3.89433,27.642257-11.46433C251.249869,247.67434,260.011064,239.932205,268,231.42c8.086365-8.351979,15.257076-17.544166,21.39-27.42c6.99-11.56,12.33-25.06,8.61-28.59Z" fill="#b99cec"/><path d="M224,244c-.52,4.52,1.13,10,10.36,6l50.51-53c2.68-8.74-.73-12.15-9.18-8.91-8.89,3.43-49.57,39.78-51.69,55.91Z" fill="#82578c"/></g><path d="M298,175.41c-3.72-3.52-15.66,3.68-26.88,11.21c1.434321.620439,2.824268,1.338801,4.16,2.15c4.15-1.65,7.37-1.82,9.09-.18s1.71,4.53.48,8.43c-2.44,7.82-10.08,19.36-20.84,30.66s-22,19.51-29.67,22.33c-3.83,1.4-6.81,1.47-8.43-.08s-1.71-4.85-.27-9.07c-.8722-1.303377-1.657247-2.663011-2.35-4.07-7,11.58-13,25.45-9.27,29s16.31-4,27.53-11.57c9.601629-6.638747,18.46837-14.281912,26.45-22.8c8.086365-8.351979,15.257076-17.544166,21.39-27.42c6.99-11.56,12.33-25.06,8.61-28.59Z" fill="url(#ehxB3H768uv35-fill)"/><mask id="ehxB3H768uv36" mask-type="luminance" x="-150%" y="-150%" height="400%" width="400%"><path d="M298,175.41c-3.72-3.52-15.66,3.68-26.88,11.21c1.434321.620439,2.824268,1.338801,4.16,2.15c4.15-1.65,7.37-1.82,9.09-.18s1.71,4.53.48,8.43c-2.44,7.82-10.08,19.36-20.84,30.66s-22,19.51-29.67,22.33c-3.83,1.4-6.81,1.47-8.43-.08s-1.71-4.85-.27-9.07c-.8722-1.303377-1.657247-2.663011-2.35-4.07-7,11.58-13,25.45-9.27,29s16.31-4,27.53-11.57c9.601629-6.638747,18.46837-14.281912,26.45-22.8c8.086365-8.351979,15.257076-17.544166,21.39-27.42c6.99-11.56,12.33-25.06,8.61-28.59Z" fill="#fff"/></mask></g></g><g id="ehxB3H768uv38" transform="translate(-3 0)"><path d="M188.42,196.49v-269.284979" fill="none" stroke="#3b4f66" stroke-width="2" stroke-miterlimit="10"/><g transform="translate(0-5.6721)" mask="url(#ehxB3H768uv52)"><g><circle r="31.25" transform="translate(188.42 227.87)" fill="none"/><circle r="31.25" transform="translate(188.42 227.87)" fill="#6ec6b6"/><path d="M164.63,202.26c0,0,7.85-.79,20.6,5.92c7.06,2.51,13.66,4.38,24.36-6-4-3-11.27-5.6-11.27-5.6s-1,3.93-7.63,5.52c-5.767277.627937-11.446903-1.784011-15-6.37-3.549031,2.401788-7.242698,4.582588-11.06,6.53Z" fill="#498c7f"/><path d="M157.17,215.92c0,0,5.52-2,18.16-1.35c8.08.33,29.82-.47,38.24-9c3.42,4.22,7.51,14.35,7.51,14.35s-17.07,6.26-30.62,3.41c-12-2.5-20.6-6.71-34.83,1.25c1.03-6.04,1.54-8.66,1.54-8.66Z" fill="#498c7f"/><path d="M174.19,207.27c0,0,4.95.51,4.1,4.16-.29,1.08-2.74,2.39-6,.62s-5.18-1.82-4.66-3.53c.18-.62,1.61-2.05,6.56-1.25Z" fill="#498c7f"/><path d="M155.63,229c0,0,8-7.31,22.2-3.21c5.45,1.56,9.38,6.78,14,10.81c8.65,7.54,21,6.29,26.86.65-1.46154,3.787556-3.311408,7.413565-5.52,10.82-7.794186,1.39828-15.831369.259124-22.93-3.25C179,239,163.78,240.4,161.11,246c-3.19-5.31-5.48-17-5.48-17Z" fill="#498c7f"/><path d="M204.6,228.53c0,0,8.18-.44,7.73,5.7-.18,1.84-3.83,4.6-9.65,2.58-6-1.9-8.89-1.63-8.5-4.54.21-1.08,2.16-3.76,10.42-3.74Z" fill="#498c7f"/><path d="M214.48,224.17c0,0,3.13-.28,3.19,1.54c0,1.59-1.94,1.82-3.19,1.71s-3.07.06-3.24-1.14c0-.68.68-1.71,3.24-2.11Z" fill="#498c7f"/><path d="M208.22,254.54c0,0-7.85.8-20.6-5.92-7.06-2.5-13.66-4.38-24.36,5.95c4,3,11.27,5.6,11.27,5.6s1-3.92,7.63-5.52c5.768544-.621655,11.44668,1.793446,15,6.38c3.547288-2.392543,7.241213-4.560135,11.06-6.49Z" fill="#498c7f"/><circle r="31.38" transform="matrix(1.00948 0 0 1.00948 188.49 228.29444)" fill="url(#ehxB3H768uv51-fill)"/></g><mask id="ehxB3H768uv52" mask-type="luminance" x="-150%" y="-150%" height="400%" width="400%"><circle r="31.25" transform="translate(188.42 227.87)" fill="#fff"/></mask></g></g><g id="ehxB3H768uv54" transform="translate(-3 0)"><path d="M133.27,196.49v-268.730202" fill="none" stroke="#3b4f66" stroke-width="2" stroke-miterlimit="10"/><g mask="url(#ehxB3H768uv65)"><g><circle r="24.07" transform="translate(133.27 220.57)" fill="#f9ca4b"/><path d="M108.64,222.34c0,0,8.28,8.53,17.49,5.87c3.42-1,7.53-3.6,11.63-13.84c2.82-7.36,3.73-10.3,4.32-11.45c1.49-2.94,2.46-3.37,7.84-3.37" fill="none" stroke="#fff7ab" stroke-width="0.992126" stroke-miterlimit="10"/><path d="M109.25,217.2c0,0,16.75,15.8,27.62-11.2c1.91-4.73,4.6-9.53,9.49-8" fill="none" stroke="#fff7ab" stroke-width="0.992126" stroke-miterlimit="10"/><path d="M108.64,212c0,0,11.86,5.44,23.25-8.44c4.73-5.76,7.59-6.76,10.32-7" fill="none" stroke="#fff7ab" stroke-width="0.992126" stroke-miterlimit="10"/><path d="M157.35,211.05c0,0-10.81-10.75-16.51,19.95-2.37,12.74-11.73,19.35-27.78,9.91" fill="none" stroke="#fff7ab" stroke-width="0.992126" stroke-miterlimit="10"/><path d="M158.94,217.15c0,0-15.83-4.17-8.77,24.17" fill="none" stroke="#fff7ab" stroke-width="0.992126" stroke-miterlimit="10"/><circle r="24.14" transform="translate(133.34 220.63)" fill="url(#ehxB3H768uv64-fill)"/></g><mask id="ehxB3H768uv65" mask-type="luminance" x="-150%" y="-150%" height="400%" width="400%"><circle r="24.07" transform="translate(133.27 220.57)" fill="#fff"/></mask></g></g><g id="ehxB3H768uv67" transform="matrix(.990268 0.139173-.139173 0.990268-12.027532-12.742176)"><path d="M84.95,196.49l.153499-268.460223" fill="none" stroke="#3b4f66" stroke-width="2" stroke-miterlimit="10"/><g mask="url(#ehxB3H768uv86)"><g><circle r="24.07" transform="translate(84.95 220.7)" fill="#82cfff"/><path d="M78.72,197.45c0,0,16,2.43,14.66,10.74-.28,1.25-2,1.79-4,1.91s-3.76.64-3.73,2.82c.1,1.92,1.69,2.49,3.68,2.43c1.71,0,3.4-.21,4.08,1.72s.29,3.59-.85,5.63-7.35,11.53-21.23,8.3c-4.87-1.8-8.19-3.76-7.34-15c.08-1.09-2.76.31-3.11-.88-2,8.42-8,32.55,24.8,35.68c13,.86,31.27-7.74,28.93-32.67-1.82-8.57-9.99-28.76-35.89-20.68Z" fill="#61a8e2"/><path d="M101.87,203.18c-.917982-.449256-1.992018-.449256-2.91,0-1.07.64-1.71,1.8-.9,3.85s2.79,8.85.13,12.8c-1.58,2.25-3.39,3.69-7.38,3.93-4.36.08-7.47,0-7.47,0-1.438214.015075-2.618047,1.143416-2.697244,2.579527s.969408,2.687344,2.397244,2.860473c1,.08,3.75,0,3.75,0c1.194976-.091274,2.29441.655511,2.65,1.8.21,1.2-.17,2.31-2.35,3.42-2.39,1.13-8,2.62-12.84,1.45-2.31-.83-3.42-1.13-4.41.58-.576801,1.405051-.093351,3.022108,1.16,3.88c4.138846,3.193907,9.222098,4.921157,14.45,4.91c3.41,0,18.19-.65,23.83-19.55.48-1.76,3.6-13.84-7.41-22.51Z" fill="#4081c1"/><path d="M80.72,242.4c0,0,12.66,2.78,21.6-7.4c2.5-2.85,5.5-9.23,5-16.91" fill="none" stroke="#366cba" stroke-width="5.05491" stroke-linecap="round" stroke-miterlimit="10"/><line x1="107.05" y1="223.74" x2="101.84" y2="223.59" fill="none" stroke="#366cba" stroke-width="3.79119" stroke-linecap="round" stroke-miterlimit="10"/><line x1="74.66" y1="215.7" x2="80.72" y2="215.7" transform="translate(-2.001413-.997169)" fill="none" stroke="#366cba" stroke-width="6.31864" stroke-linecap="round" stroke-miterlimit="10"/><line x1="80.72" y1="219.03" x2="83.07" y2="219.03" transform="translate(-2.001413-.997169)" fill="none" stroke="#cef" stroke-width="3.79119" stroke-linecap="round" stroke-miterlimit="10"/><line x1="84.95" y1="207.51" x2="86.4" y2="207.51" fill="none" stroke="#cef" stroke-width="2.52746" stroke-linecap="round" stroke-miterlimit="10"/><line x1="69.93" y1="222.7" x2="72.27" y2="222.7" transform="translate(-1.999998 0.00283)" fill="none" stroke="#61a8e2" stroke-width="3.79119" stroke-linecap="round" stroke-miterlimit="10"/><line x1="96.34" y1="229.41" x2="98.69" y2="229.41" fill="none" stroke="#366cba" stroke-width="3.79119" stroke-linecap="round" stroke-miterlimit="10"/><line x1="77.27" y1="233.69" x2="78.72" y2="233.69" fill="none" stroke="#82cfff" stroke-width="2.52746" stroke-linecap="round" stroke-miterlimit="10"/><path d="M62.2,223.73c-1.09-14.86,9.57-26.39,25.28-25.65" fill="none" stroke="#71c2f4" stroke-width="3.79119" stroke-linecap="round" stroke-miterlimit="10"/><circle r="24.23" transform="translate(84.893496 220.720108)" fill="url(#ehxB3H768uv85-fill)"/></g><mask id="ehxB3H768uv86" mask-type="luminance" x="-150%" y="-150%" height="400%" width="400%"><circle r="24.07" transform="translate(84.95 220.7)" fill="#fff"/></mask></g></g></g></g>
<script><![CDATA[
(function(s,i,u,o,c,w,d,t,n,x,e,p,a,b){(a=Array.from(d.querySelectorAll('svg#' + i.root)).filter(n=> !n.svgatorPlayer)[0]||{}).svgatorPlayer={ready:(function(a){b=[];return function(c){return c?(b.push(c),a.svgatorPlayer):b}})(a)};w[o]=w[o]||{};w[o][s]=w[o][s]||[];w[o][s].push(i);e=d.createElementNS(n,t);e.async=true;e.setAttributeNS(x,'href',[u,s,'.','j','s','?','v','=',c].join(''));e.setAttributeNS(null,'src',[u,s,'.','j','s','?','v','=',c].join(''));p=d.getElementsByTagName(t)[0];p.parentNode.insertBefore(e,p);})('91c80d77',{"root":"ehxB3H768uv1","version":"2022-05-04","animations":[{"elements":{"ehxB3H768uv6":{"transform":{"data":{"o":{"x":315.373806,"y":-72.002538,"type":"corner"},"t":{"x":-318.373806,"y":72.002538}},"keys":{"r":[{"t":400,"v":0,"e":[0.075,0.82,0.165,1]},{"t":800,"v":-8,"e":[0.6,0.04,0.98,0.335]},{"t":1200,"v":0,"e":[0.175,0.885,0.32,1.275]}]}}},"ehxB3H768uv22":{"transform":{"data":{"o":{"x":253.5551,"y":-72.721361,"type":"corner"},"t":{"x":-256.5551,"y":72.721361}},"keys":{"r":[{"t":400,"v":0,"e":[0.445,0.05,0.55,0.95]},{"t":600,"v":-1,"e":[0.445,0.05,0.55,0.95]},{"t":800,"v":0,"e":[0.68,-0.55,0.265,1.55]},{"t":1200,"v":0,"e":[0.445,0.05,0.55,0.95]},{"t":1400,"v":0.4,"e":[0.445,0.05,0.55,0.95]},{"t":1600,"v":0}]}}},"ehxB3H768uv30":{"transform":{"data":{"o":{"x":256.047951,"y":220.5989,"type":"corner"},"t":{"x":-256.047951,"y":-220.5989}},"keys":{"r":[{"t":400,"v":-5,"e":[0.445,0.05,0.55,0.95]},{"t":600,"v":-8,"e":[0.445,0.05,0.55,0.95]},{"t":800,"v":-5,"e":[0.68,-0.55,0.265,1.55]},{"t":1200,"v":-5,"e":[0.445,0.05,0.55,0.95]},{"t":1400,"v":-8,"e":[0.445,0.05,0.55,0.95]},{"t":1600,"v":-5,"e":[0.68,-0.55,0.265,1.55]}]}}},"ehxB3H768uv38":{"transform":{"data":{"o":{"x":185.898882,"y":-72.140449,"type":"corner"},"t":{"x":-188.898882,"y":72.140449}},"keys":{"r":[{"t":400,"v":0,"e":[0.445,0.05,0.55,0.95]},{"t":600,"v":-0.4,"e":[0.445,0.05,0.55,0.95]},{"t":800,"v":0,"e":[0.68,-0.55,0.265,1.55]},{"t":1200,"v":0,"e":[0.445,0.05,0.55,0.95]},{"t":1400,"v":0.4,"e":[0.445,0.05,0.55,0.95]},{"t":1600,"v":0}]}}},"ehxB3H768uv54":{"transform":{"data":{"o":{"x":130.707048,"y":-72.140449,"type":"corner"},"t":{"x":-133.707048,"y":72.140449}},"keys":{"r":[{"t":400,"v":0,"e":[0.445,0.05,0.55,0.95]},{"t":600,"v":-0.4,"e":[0.445,0.05,0.55,0.95]},{"t":800,"v":0,"e":[0.68,-0.55,0.265,1.55]},{"t":1200,"v":0,"e":[0.445,0.05,0.55,0.95]},{"t":1400,"v":1,"e":[0.445,0.05,0.55,0.95]},{"t":1600,"v":0}]}}},"ehxB3H768uv67":{"transform":{"data":{"o":{"x":83.663215,"y":-71.627512,"type":"corner"},"t":{"x":-86.564236,"y":71.629846}},"keys":{"r":[{"t":0,"v":8,"e":[0.6,0.04,0.98,0.335]},{"t":400,"v":0.08,"e":[0.175,0.885,0.32,1.275]},{"t":1200,"v":0.08,"e":[0.075,0.82,0.165,1]},{"t":1600,"v":8,"e":[0.6,0.04,0.98,0.335]}]}}}},"s":"MDFA1ZGNiNzJiNFGM1YzJiMWM0SYjliZkdiZTcNyOGE4MTg2ODBA4MDdjNzJiNLGI5YzJiNWIzMYzRiOWJmYmUG3MjhhODE3YzCcyQWI5YzRiNYWMyYjFjNGI5CYmZiZUJjMzcXyOGE4MEI3YzPcyYjZiOWJjYFmM3MjhhODE3KY003MmIxRGJAjYzRiNWMyYmAViMWM0YjU3MYk84YWI2YjFiSY2MzYjU3YzcOyYzNjMGI1SGII1YjQ3MjhhOTDE3YzcyYjZjJMGMzWDcyOGEG4MTgwODBjZAU|"}],"options":"MDGAxZTg2VjJkNO2U3ZjZjVzdkJSDdmMmQ0NTJAkN2U2ZTdkN2BE3Nzc3RzJkMEzcyZDdlNmVVSN2Q3YTc3NzcQyZDQ1RjNkNDTA4OA|"},'https://cdn.svgator.com/ply/','__SVGATOR_PLAYER__','2022-05-04',window,document,'script','http://www.w3.org/2000/svg','http://www.w3.org/1999/xlink')
]]></script>
</svg>
